<?xml version="1.0" encoding="UTF-8" standalone="no"?>
<!-- Created with Inkscape (http://www.inkscape.org/) -->
<svg xmlns:rdf="http://www.w3.org/1999/02/22-rdf-syntax-ns#" xmlns="http://www.w3.org/2000/svg" xml:space="preserve" version="1.1" xmlns:cc="http://creativecommons.org/ns#" xmlns:dc="http://purl.org/dc/elements/1.1/" viewBox="0 0 175 175"><metadata><rdf:RDF><cc:Work rdf:about=""><dc:format>image/svg+xml</dc:format><dc:type rdf:resource="http://purl.org/dc/dcmitype/StillImage"/><dc:title/></cc:Work></rdf:RDF></metadata><defs><clipPath id="clipPath16" clipPathUnits="userSpaceOnUse"><path d="M0,792,612,792,612,0,0,0,0,792z"/></clipPath></defs><g transform="matrix(1.25,0,0,-1.25,-296.25,582.5)"><g clip-path="url(#clipPath16)"><g transform="translate(377,334)"><path fill-rule="nonzero" fill="#3c5a98" d="m0,0c0-4.398-3.602-8-8-8h-124c-4.398,0-8,3.602-8,8v124c0,4.398,3.602,8,8,8h124c4.398,0,8-3.602,8-8v-124z"/></g><path fill-rule="nonzero" fill="#6d84b3" d="m367,336-120,0,0,20,120,0,0-20z"/><g transform="translate(317,336)"><path fill-rule="nonzero" fill="#FFF" d="m0,0,0,51.469-13.609,0,0,18.531h13.609v15.828c0,12.438,8.039,23.86,26.563,23.86,7.5,0,13.046-0.719,13.046-0.719l-0.437-17.306s-5.656,0.055-11.828,0.055c-6.68,0-7.75-3.078-7.75-8.188v-13.531h20.109l-0.875-18.531h-19.234v-51.469h-19.594z"/></g></g></g></svg>
