<?xml version="1.0" encoding="UTF-8" standalone="no"?>
<svg xmlns:rdf="http://www.w3.org/1999/02/22-rdf-syntax-ns#" xmlns="http://www.w3.org/2000/svg" height="128px" viewBox="0 0 256 256" width="128px" version="1.1" xmlns:cc="http://creativecommons.org/ns#" xmlns:dc="http://purl.org/dc/elements/1.1/">
	<metadata>
		<rdf:RDF>
			<cc:Work rdf:about="">
				<dc:format>image/svg+xml</dc:format>
				<dc:type rdf:resource="http://purl.org/dc/dcmitype/StillImage"/>
				<dc:title/>
			</cc:Work>
		</rdf:RDF>
	</metadata>
	<defs>
		<linearGradient id="RSSg" y1="0.085" x2="0.915" x1="0.085" y2="0.915">
			<stop stop-color="#E3702D" offset="0"/>
			<stop stop-color="#EA7D31" offset="0.1071"/>
			<stop stop-color="#F69537" offset="0.3503"/>
			<stop stop-color="#FB9E3A" offset="0.5"/>
			<stop stop-color="#EA7C31" offset="0.7016"/>
			<stop stop-color="#DE642B" offset="0.8866"/>
			<stop stop-color="#D95B29" offset="1"/>
		</linearGradient>
	</defs>
	<rect rx="55" ry="55" height="256" width="256" y="0" x="0" fill="#CC5D15"/>
	<rect rx="50" ry="50" height="246" width="246" y="5" x="5" fill="#F49C52"/>
	<rect rx="47" ry="47" height="236" width="236" y="10" x="10" fill="url(#RSSg)"/>
	<circle cy="189" cx="68" r="24" fill="#FFF"/>
	<path d="M160,213h-34a82,82,0,0,0,-82,-82v-34a116,116,0,0,1,116,116z" fill="#FFF"/>
	<path d="M184,213a140,140,0,0,0,-140,-140v-35a175,175,0,0,1,175,175z" fill="#FFF"/>
</svg>
