<?xml version="1.0" encoding="UTF-8" standalone="no"?>
<!-- Created with Inkscape (http://www.inkscape.org/) -->
<svg xmlns:rdf="http://www.w3.org/1999/02/22-rdf-syntax-ns#" xmlns="http://www.w3.org/2000/svg" xml:space="preserve" version="1.1" xmlns:cc="http://creativecommons.org/ns#" xmlns:dc="http://purl.org/dc/elements/1.1/" viewBox="0 0 540 540"><metadata><rdf:RDF><cc:Work rdf:about=""><dc:format>image/svg+xml</dc:format><dc:type rdf:resource="http://purl.org/dc/dcmitype/StillImage"/><dc:title/></cc:Work></rdf:RDF></metadata><defs><clipPath id="clipPath32" clipPathUnits="userSpaceOnUse"><path d="m0,841.89,595.28,0v-841.89h-595.28v841.89z"/></clipPath></defs><g transform="matrix(1.25,0,0,-1.25,-90,900)"><path fill-rule="nonzero" fill="#5e5e60" d="m72,288,432,0,0,432-432,0,0-432z"/><path fill-rule="nonzero" fill="#b3b4b6" d="m216,324,144,0,0,180-144,0,0-180z"/><g transform="translate(252,468)"><path fill-rule="nonzero" fill="#5e5e60" d="m0,0,0-36,36,0,0-36-36,0,0-36,72,0v108h-72z"/></g><g transform="translate(468,504)"><path fill-rule="nonzero" fill="#FFF" d="m0,0,0-180-36,0-36,90,0-90-36,0,0,180,36,0,36-90,0,90,36,0z"/></g><g transform="translate(468,684)"><path fill-rule="nonzero" fill="#b3b4b6" d="m0,0,0-180-108,0,0,36,72,0,0,144,36,0z"/></g><g clip-path="url(#clipPath32)"><g transform="translate(378,594)"><path fill-rule="nonzero" fill="#b3b4b6" d="m0,0c0-49.706-40.294-90-90-90s-90,40.294-90,90,40.294,90,90,90,90-40.294,90-90"/></g><g transform="translate(216,540)"><path fill-rule="nonzero" fill="#b3b4b6" d="m0,0,0-36-108,0,0,171,36,0,0-135,72,0z"/></g><g transform="translate(108,324)"><path fill-rule="nonzero" fill="#FFF" d="m0,0,0,180,36,0,36-90,0,90,36,0v-180h-36l-36,90v-90h-36z"/></g><g transform="translate(342,594)"><path fill-rule="nonzero" fill="#5e5e60" d="m0,0c0-29.823-24.177-54-54-54s-54,24.177-54,54,24.177,54,54,54,54-24.177,54-54"/></g></g></g></svg>
