<?xml version="1.0" encoding="UTF-8" standalone="no"?>
<!-- Created with Inkscape (http://www.inkscape.org/) -->
<svg xmlns:rdf="http://www.w3.org/1999/02/22-rdf-syntax-ns#" xmlns="http://www.w3.org/2000/svg" xml:space="preserve" version="1.1" xmlns:cc="http://creativecommons.org/ns#" xmlns:dc="http://purl.org/dc/elements/1.1/" viewBox="0 0 540 540"><title>lolnein</title><metadata><rdf:RDF><cc:Work rdf:about=""><dc:format>image/svg+xml</dc:format><dc:type rdf:resource="http://purl.org/dc/dcmitype/StillImage"/><dc:title>lolnein</dc:title><dc:creator><cc:Agent><dc:title>Vincent Kunert</dc:title></cc:Agent></dc:creator></cc:Work></rdf:RDF></metadata><defs><clipPath id="clipPath32" clipPathUnits="userSpaceOnUse"><path d="m0,14400,14400,0v-14400h-14400v14400z"/></clipPath></defs><g transform="matrix(1.25,0,0,-1.25,-8730.625,9269.375)"><path fill-rule="nonzero" fill="#333" d="m6984.5,6983.5,432,0,0,432-432,0,0-432z"/><path fill-rule="nonzero" fill="#999" d="m7128.5,7019.5,144,0,0,180-144,0,0-180z"/><g transform="translate(7164.5,7163.5)"><path fill-rule="nonzero" fill="#333" d="m0,0,0-36,36,0,0-36-36,0,0-36,72,0v108h-72z"/></g><g transform="translate(7380.5,7199.5)"><path fill-rule="nonzero" fill="#FFF" d="m0,0,0-180-36,0-36,90,0-90-36,0,0,180,36,0,36-90,0,90,36,0z"/></g><g transform="translate(7380.5,7379.5)"><path fill-rule="nonzero" fill="#999" d="m0,0,0-180-108,0,0,36,72,0,0,144,36,0z"/></g><g clip-path="url(#clipPath32)"><g transform="translate(7290.5,7289.5)"><path fill-rule="nonzero" fill="#999" d="m0,0c0-49.706-40.294-90-90-90s-90,40.294-90,90,40.294,90,90,90,90-40.294,90-90"/></g><g transform="translate(7020.5,7019.5)"><path fill-rule="nonzero" fill="#FFF" d="m0,0,0,180,36,0,36-90,0,90,36,0v-180h-36l-36,90v-90h-36z"/></g><g transform="translate(7254.5,7289.5)"><path fill-rule="nonzero" fill="#333" d="m0,0c0-29.823-24.177-54-54-54s-54,24.177-54,54,24.177,54,54,54,54-24.177,54-54"/></g><g transform="translate(7056.5,7235.5)"><path fill-rule="nonzero" fill="#999" d="m0,0,0,144-36,0,0-180,108,0,0,36-72,0z"/></g></g></g></svg>
