<?xml version="1.0" encoding="UTF-8" standalone="no"?>
<svg
   xmlns:dc="http://purl.org/dc/elements/1.1/"
   xmlns:cc="http://creativecommons.org/ns#"
   xmlns:rdf="http://www.w3.org/1999/02/22-rdf-syntax-ns#"
   xmlns:svg="http://www.w3.org/2000/svg"
   xmlns="http://www.w3.org/2000/svg"
   xmlns:xlink="http://www.w3.org/1999/xlink"
   xmlns:sodipodi="http://sodipodi.sourceforge.net/DTD/sodipodi-0.dtd"
   xmlns:inkscape="http://www.inkscape.org/namespaces/inkscape"
   width="810"
   height="540"
   id="svg3020"
   version="1.1"
   inkscape:version="0.48.4 r9939"
   sodipodi:docname="usa.svg">
  <metadata
     id="metadata3091">
    <rdf:RDF>
      <cc:Work
         rdf:about="">
        <dc:format>image/svg+xml</dc:format>
        <dc:type
           rdf:resource="http://purl.org/dc/dcmitype/StillImage" />
      </cc:Work>
    </rdf:RDF>
  </metadata>
  <sodipodi:namedview
     pagecolor="#ffffff"
     bordercolor="#666666"
     borderopacity="1"
     objecttolerance="10"
     gridtolerance="10"
     guidetolerance="10"
     inkscape:pageopacity="0"
     inkscape:pageshadow="2"
     inkscape:window-width="680"
     inkscape:window-height="729"
     id="namedview3089"
     showgrid="true"
     inkscape:zoom="0.26477733"
     inkscape:cx="913.0651"
     inkscape:cy="156.86667"
     inkscape:window-x="0"
     inkscape:window-y="18"
     inkscape:window-maximized="0"
     inkscape:current-layer="svg3020">
    <inkscape:grid
       type="xygrid"
       id="grid3131"
       empspacing="5"
       visible="true"
       enabled="true"
       snapvisiblegridlinesonly="true" />
  </sodipodi:namedview>
  <defs
     id="defs3022">
    <polygon
       id="pt"
       points="0,-0.5 0.16245985,0 -0.16245985,0 "
       transform="scale(0.0616,0.0616)"
       style="fill:#ffffff" />
    <g
       id="star">
      <use
         xlink:href="#pt"
         transform="matrix(-0.80901699,-0.58778525,0.58778525,-0.80901699,0,0)"
         id="use3026"
         x="0"
         y="0"
         width="1235"
         height="650" />
      <use
         xlink:href="#pt"
         transform="matrix(0.30901699,-0.95105652,0.95105652,0.30901699,0,0)"
         id="use3028"
         x="0"
         y="0"
         width="1235"
         height="650" />
      <use
         xlink:href="#pt"
         id="use3030"
         x="0"
         y="0"
         width="1235"
         height="650" />
      <use
         xlink:href="#pt"
         transform="matrix(0.30901699,0.95105652,-0.95105652,0.30901699,0,0)"
         id="use3032"
         x="0"
         y="0"
         width="1235"
         height="650" />
      <use
         xlink:href="#pt"
         transform="matrix(-0.80901699,0.58778525,-0.58778525,-0.80901699,0,0)"
         id="use3034"
         x="0"
         y="0"
         width="1235"
         height="650" />
    </g>
    <g
       id="s5">
      <use
         xlink:href="#star"
         x="-0.252"
         id="use3037"
         y="0"
         width="1235"
         height="650" />
      <use
         xlink:href="#star"
         x="-0.126"
         id="use3039"
         y="0"
         width="1235"
         height="650" />
      <use
         xlink:href="#star"
         id="use3041"
         x="0"
         y="0"
         width="1235"
         height="650" />
      <use
         xlink:href="#star"
         x="0.126"
         id="use3043"
         y="0"
         width="1235"
         height="650" />
      <use
         xlink:href="#star"
         x="0.252"
         id="use3045"
         y="0"
         width="1235"
         height="650" />
    </g>
    <g
       id="s6">
      <use
         xlink:href="#s5"
         x="-0.063000001"
         id="use3048"
         y="0"
         width="1235"
         height="650" />
      <use
         xlink:href="#star"
         x="0.315"
         id="use3050"
         y="0"
         width="1235"
         height="650" />
    </g>
    <g
       id="x4">
      <use
         xlink:href="#s6"
         id="use3053"
         x="0"
         y="0"
         width="1235"
         height="650" />
      <use
         xlink:href="#s5"
         y="0.054000001"
         id="use3055"
         x="0"
         width="1235"
         height="650" />
      <use
         xlink:href="#s6"
         y="0.108"
         id="use3057"
         x="0"
         width="1235"
         height="650" />
      <use
         xlink:href="#s5"
         y="0.162"
         id="use3059"
         x="0"
         width="1235"
         height="650" />
    </g>
    <g
       id="u">
      <use
         xlink:href="#x4"
         y="-0.21600001"
         id="use3062"
         x="0"
         width="1235"
         height="650" />
      <use
         xlink:href="#x4"
         id="use3064"
         x="0"
         y="0"
         width="1235"
         height="650" />
      <use
         xlink:href="#s6"
         y="0.21600001"
         id="use3066"
         x="0"
         width="1235"
         height="650" />
    </g>
    <rect
       id="stripe"
       width="1235"
       height="50"
       x="0"
       y="0"
       style="fill:#b22234" />
  </defs>
  <rect
     width="1026.001"
     height="540.00049"
     id="rect3069"
     x="6.9775392e-06"
     y="-0.000250885"
     style="fill:#ffffff" />
  <use
     xlink:href="#stripe"
     id="use3071"
     transform="matrix(0.83077,0,0,0.83077,0,-2.4911499e-4)"
     x="0"
     y="0"
     width="1235"
     height="650" />
  <use
     xlink:href="#stripe"
     y="100"
     id="use3073"
     transform="matrix(0.83077,0,0,0.83077,0,-2.4911499e-4)"
     x="0"
     width="1235"
     height="650" />
  <use
     xlink:href="#stripe"
     y="200"
     id="use3075"
     transform="matrix(0.83077,0,0,0.83077,0,-2.4911499e-4)"
     x="0"
     width="1235"
     height="650" />
  <use
     xlink:href="#stripe"
     y="300"
     id="use3077"
     transform="matrix(0.83077,0,0,0.83077,0,-2.4911499e-4)"
     x="0"
     width="1235"
     height="650" />
  <use
     xlink:href="#stripe"
     y="400"
     id="use3079"
     transform="matrix(0.83077,0,0,0.83077,0,-2.4911499e-4)"
     x="0"
     width="1235"
     height="650" />
  <use
     xlink:href="#stripe"
     y="500"
     id="use3081"
     transform="matrix(0.83077,0,0,0.83077,0,-2.4911499e-4)"
     x="0"
     width="1235"
     height="650" />
  <use
     xlink:href="#stripe"
     y="600"
     id="use3083"
     transform="matrix(0.83077,0,0,0.83077,0,-2.4911499e-4)"
     x="0"
     width="1235"
     height="650" />
  <rect
     width="410.40039"
     height="290.7695"
     id="rect3085"
     x="6.9775392e-06"
     y="-0.000250885"
     style="fill:#3c3b6e" />
  <use
     xlink:href="#u"
     transform="matrix(540.0005,0,0,540.0005,205.20019,145.3845)"
     id="use3087"
     x="0"
     y="0"
     width="1235"
     height="650" />
</svg>
