<svg xmlns="http://www.w3.org/2000/svg" viewBox="0 0 534.75 264.75"><path d="M101.4 14.501c26.366 39.557 52.783 79.114 79.125 118.69-14.957 22.519-29.949 45.015-44.969 67.5l41.844 62.781c58.365-87.552 116.73-175.1 175.09-262.66h-83.688c-15.578 23.143-30.791 46.527-46.438 69.625-15.442-23.225-30.953-46.401-46.406-69.625h-83.665l9.125 13.688z" fill="#225f89"/><path d="M182.32 265.57h83.656c15.205-23.35 31.436-46.103 46.375-69.656 15.503 23.21 30.951 46.437 46.438 69.656h83.688c-43.354-65.042-86.708-130.08-130.06-195.12-43.365 65.042-86.729 130.08-130.09 195.12z" fill="#217ba8"/><path fill="#213a52" d="M272.32 265.57h80.156l-40.062-60.125-40.094 60.125zm177.68-130.28c1.578 11.347-3.175 1.567-6.428-3.068-28.714-43.103-57.429-86.187-86.166-129.28l-41.844 62.781c44.406 66.615 88.812 133.23 133.22 199.84h85.969v-264.75h-84.75v134.47zm-227.59-74.32l40.094-60.156h-80.188l40.094 60.156zm-222.41 204.6h84.75v-141.03c15.905 23.799 31.789 47.613 47.656 71.438 13.938-20.917 27.875-41.833 41.812-62.75-29.417-44.135-58.833-88.271-88.25-132.41h-85.971v264.75z"/></svg>